<svg width="24" height="24" viewBox="0 0 24 24" fill="none" xmlns="http://www.w3.org/2000/svg">
<path d="M2 21C1.71667 21 1.479 20.904 1.287 20.712C1.095 20.52 0.999337 20.2827 1 20C1 19.7167 1.096 19.479 1.288 19.287C1.48 19.095 1.71734 18.9993 2 19H22C22.2833 19 22.521 19.096 22.713 19.288C22.905 19.48 23.0007 19.7173 23 20C23 20.2833 22.904 20.521 22.712 20.713C22.52 20.905 22.2827 21.0007 22 21H2ZM4 18C3.45 18 2.979 17.804 2.587 17.412C2.195 17.02 1.99934 16.5493 2 16V5C2 4.45 2.196 3.979 2.588 3.587C2.98 3.195 3.45067 2.99934 4 3H20C20.55 3 21.021 3.196 21.413 3.588C21.805 3.98 22.0007 4.45067 22 5V16C22 16.55 21.804 17.021 21.412 17.413C21.02 17.805 20.5493 18.0007 20 18H4ZM4 16H20V5H4V16Z" fill="white"/>
</svg>
