<svg width="38" height="38" viewBox="0 0 38 38" fill="none" xmlns="http://www.w3.org/2000/svg">
<path d="M30.0833 4.75C30.9232 4.75 31.7286 5.08363 32.3225 5.6775C32.9164 6.27136 33.25 7.07681 33.25 7.91667V30.0833C33.25 30.9232 32.9164 31.7286 32.3225 32.3225C31.7286 32.9164 30.9232 33.25 30.0833 33.25H7.91667C7.07681 33.25 6.27136 32.9164 5.6775 32.3225C5.08363 31.7286 4.75 30.9232 4.75 30.0833V7.91667C4.75 7.07681 5.08363 6.27136 5.6775 5.6775C6.27136 5.08363 7.07681 4.75 7.91667 4.75H30.0833ZM29.2917 29.2917V20.9C29.2917 19.531 28.7479 18.2182 27.7799 17.2502C26.8118 16.2822 25.499 15.7383 24.13 15.7383C22.7842 15.7383 21.2167 16.5617 20.4567 17.7967V16.0392H16.0392V29.2917H20.4567V21.4858C20.4567 20.2667 21.4383 19.2692 22.6575 19.2692C23.2454 19.2692 23.8092 19.5027 24.2249 19.9184C24.6406 20.3341 24.8742 20.8979 24.8742 21.4858V29.2917H29.2917ZM10.8933 13.5533C11.5988 13.5533 12.2754 13.2731 12.7742 12.7742C13.2731 12.2754 13.5533 11.5988 13.5533 10.8933C13.5533 9.42083 12.3658 8.2175 10.8933 8.2175C10.1837 8.2175 9.50305 8.49942 9.00123 9.00123C8.49942 9.50305 8.2175 10.1837 8.2175 10.8933C8.2175 12.3658 9.42083 13.5533 10.8933 13.5533ZM13.0942 29.2917V16.0392H8.70833V29.2917H13.0942Z" fill="#F4F4F9"/>
</svg>
