<svg width="24" height="24" viewBox="0 0 24 24" fill="none" xmlns="http://www.w3.org/2000/svg">
<path d="M12 21C9.48333 21 7.354 20.6123 5.612 19.837C3.87 19.0617 2.99933 18.116 3 17V7C3 5.9 3.87933 4.95833 5.638 4.175C7.39667 3.39167 9.51733 3 12 3C14.4833 3 16.6043 3.39167 18.363 4.175C20.1217 4.95833 21.0007 5.9 21 7V17C21 18.1167 20.129 19.0627 18.387 19.838C16.645 20.6133 14.516 21.0007 12 21ZM12 9.025C13.4833 9.025 14.975 8.81233 16.475 8.387C17.975 7.96167 18.8167 7.50767 19 7.025C18.8167 6.54167 17.979 6.08333 16.487 5.65C14.995 5.21667 13.4993 5 12 5C10.4833 5 8.99567 5.21267 7.537 5.638C6.07833 6.06333 5.23267 6.52533 5 7.024C5.23333 7.524 6.07933 7.98233 7.538 8.399C8.99667 8.81567 10.484 9.02433 12 9.025ZM12 14C12.7 14 13.375 13.9667 14.025 13.9C14.675 13.8333 15.296 13.7373 15.888 13.612C16.4793 13.4873 17.0377 13.3333 17.563 13.15C18.0883 12.9667 18.5673 12.7583 19 12.525V9.525C18.5667 9.75833 18.0873 9.96667 17.562 10.15C17.0367 10.3333 16.4783 10.4877 15.887 10.613C15.2957 10.7377 14.675 10.8333 14.025 10.9C13.375 10.9667 12.7 11 12 11C11.3 11 10.6167 10.9667 9.95 10.9C9.28333 10.8333 8.654 10.7373 8.062 10.612C7.47067 10.4873 6.91667 10.3333 6.4 10.15C5.88333 9.96667 5.41667 9.75833 5 9.525V12.525C5.41667 12.7583 5.88333 12.9667 6.4 13.15C6.91667 13.3333 7.471 13.4877 8.063 13.613C8.65433 13.7377 9.28333 13.8333 9.95 13.9C10.6167 13.9667 11.3 14 12 14ZM12 19C12.7667 19 13.5457 18.9417 14.337 18.825C15.1283 18.7083 15.8577 18.554 16.525 18.362C17.1917 18.1707 17.75 17.954 18.2 17.712C18.65 17.47 18.9167 17.2243 19 16.975V14.525C18.5667 14.7583 18.0873 14.9667 17.562 15.15C17.0367 15.3333 16.4783 15.4877 15.887 15.613C15.2957 15.7377 14.675 15.8333 14.025 15.9C13.375 15.9667 12.7 16 12 16C11.3 16 10.6167 15.9667 9.95 15.9C9.28333 15.8333 8.654 15.7373 8.062 15.612C7.47067 15.4873 6.91667 15.3333 6.4 15.15C5.88333 14.9667 5.41667 14.7583 5 14.525V17C5.08333 17.25 5.346 17.4917 5.788 17.725C6.23 17.9583 6.784 18.171 7.45 18.363C8.11667 18.5543 8.85 18.7083 9.65 18.825C10.45 18.9417 11.2333 19 12 19Z" fill="white"/>
</svg>
