<svg width="37" height="37" viewBox="0 0 37 37" fill="none" xmlns="http://www.w3.org/2000/svg">
<path d="M18.5 3.08334C16.4754 3.08334 14.4707 3.48211 12.6003 4.25687C10.7298 5.03163 9.03032 6.16721 7.59875 7.59878C4.70756 10.49 3.08331 14.4113 3.08331 18.5C3.08331 25.3142 7.5079 31.0954 13.6283 33.1458C14.3991 33.2692 14.6458 32.7913 14.6458 32.375V29.7696C10.3754 30.6946 9.46581 27.7038 9.46581 27.7038C8.75665 25.9154 7.75456 25.4375 7.75456 25.4375C6.35165 24.4817 7.86248 24.5125 7.86248 24.5125C9.40415 24.6204 10.2212 26.1004 10.2212 26.1004C11.5625 28.4438 13.8287 27.75 14.7075 27.38C14.8462 26.3779 15.2471 25.6996 15.6787 25.3142C12.2562 24.9288 8.66415 23.6029 8.66415 17.7292C8.66415 16.0179 9.24998 14.6458 10.2521 13.5513C10.0979 13.1658 9.55831 11.5625 10.4062 9.48126C10.4062 9.48126 11.7012 9.06501 14.6458 11.0538C15.8637 10.7146 17.1896 10.545 18.5 10.545C19.8104 10.545 21.1362 10.7146 22.3541 11.0538C25.2987 9.06501 26.5937 9.48126 26.5937 9.48126C27.4416 11.5625 26.9021 13.1658 26.7479 13.5513C27.75 14.6458 28.3358 16.0179 28.3358 17.7292C28.3358 23.6183 24.7283 24.9133 21.2904 25.2988C21.8454 25.7767 22.3541 26.7171 22.3541 28.1508V32.375C22.3541 32.7913 22.6008 33.2846 23.3871 33.1458C29.5075 31.08 33.9166 25.3142 33.9166 18.5C33.9166 16.4755 33.5179 14.4707 32.7431 12.6003C31.9684 10.7299 30.8328 9.03035 29.4012 7.59878C27.9696 6.16721 26.2701 5.03163 24.3997 4.25687C22.5292 3.48211 20.5245 3.08334 18.5 3.08334Z" fill="#F4F4F9"/>
</svg>
