<svg width="20" height="20" viewBox="0 0 20 20" fill="none" xmlns="http://www.w3.org/2000/svg">
<path d="M15.993 1.385C16.3528 1.10786 16.8012 0.971164 17.2545 1.00042C17.7077 1.02968 18.1348 1.2229 18.4561 1.544C18.7773 1.8651 18.9707 2.29213 19.0001 2.74536C19.0295 3.1986 18.893 3.64705 18.616 4.007L14.586 9.277C13.4516 10.7603 12.0052 11.9763 10.349 12.839C10.1442 12.0745 9.74178 11.3774 9.18217 10.8178C8.62255 10.2582 7.92547 9.85578 7.161 9.651C8.02385 7.99522 9.23983 6.54915 10.723 5.415L15.993 1.385ZM6 11C5.20435 11 4.44129 11.3161 3.87868 11.8787C3.31607 12.4413 3 13.2043 3 14C3.00017 14.085 2.97868 14.1686 2.93756 14.2429C2.89645 14.3173 2.83706 14.38 2.765 14.425C2.69294 14.47 2.6106 14.496 2.52574 14.5003C2.44088 14.5047 2.3563 14.4874 2.28 14.45C2.14559 14.384 1.99449 14.3597 1.84615 14.3803C1.69782 14.4009 1.55905 14.4654 1.44771 14.5655C1.33637 14.6657 1.25756 14.7969 1.22143 14.9422C1.1853 15.0875 1.19351 15.2404 1.245 15.381C1.56968 16.2617 2.19365 17.0002 3.00777 17.4673C3.82189 17.9344 4.77433 18.1005 5.69849 17.9364C6.62266 17.7723 7.45971 17.2885 8.06324 16.5696C8.66677 15.8508 8.99836 14.9426 9 14.004V14C8.99902 13.4426 8.84331 12.8965 8.55022 12.4224C8.25712 11.9484 7.83816 11.565 7.34 11.315C6.92391 11.1072 6.46509 10.9994 6 11Z" fill="white"/>
</svg>
