<svg width="24" height="24" viewBox="0 0 24 24" fill="none" xmlns="http://www.w3.org/2000/svg">
<path fill-rule="evenodd" clip-rule="evenodd" d="M2 12V8C2 5.172 2 3.757 2.879 2.879C3.757 2 5.172 2 8 2H16C18.828 2 20.243 2 21.121 2.879C22 3.757 22 5.172 22 8V12C22 14.828 22 16.243 21.121 17.121C20.645 17.598 20.011 17.816 19.081 17.916C19.0201 17.8347 18.955 17.7566 18.886 17.682C18.7543 17.5405 18.6189 17.4024 18.48 17.268L16.987 15.796L16.436 15.238C16.2562 14.1917 15.7125 13.2427 14.9007 12.5585C14.089 11.8744 13.0616 11.4992 12 11.4992C10.9384 11.4992 9.91099 11.8744 9.09927 12.5585C8.28755 13.2427 7.74376 14.1917 7.564 15.238L7.014 15.796L5.52 17.268C5.377 17.409 5.23 17.554 5.114 17.682C5.064 17.737 4.994 17.816 4.92 17.916C3.989 17.816 3.355 17.598 2.879 17.121C2 16.243 2 14.828 2 12ZM9 5.25C8.80109 5.25 8.61032 5.32902 8.46967 5.46967C8.32902 5.61032 8.25 5.80109 8.25 6C8.25 6.19891 8.32902 6.38968 8.46967 6.53033C8.61032 6.67098 8.80109 6.75 9 6.75H15C15.1989 6.75 15.3897 6.67098 15.5303 6.53033C15.671 6.38968 15.75 6.19891 15.75 6C15.75 5.80109 15.671 5.61032 15.5303 5.46967C15.3897 5.32902 15.1989 5.25 15 5.25H9ZM6.25 9.5C6.25 9.30109 6.32902 9.11032 6.46967 8.96967C6.61032 8.82902 6.80109 8.75 7 8.75H17C17.1989 8.75 17.3897 8.82902 17.5303 8.96967C17.671 9.11032 17.75 9.30109 17.75 9.5C17.75 9.69891 17.671 9.88968 17.5303 10.0303C17.3897 10.171 17.1989 10.25 17 10.25H7C6.80109 10.25 6.61032 10.171 6.46967 10.0303C6.32902 9.88968 6.25 9.69891 6.25 9.5Z" fill="#E6AF2E"/>
<path d="M15 16C15 16.7956 14.6839 17.5587 14.1213 18.1213C13.5587 18.6839 12.7956 19 12 19C11.2044 19 10.4413 18.6839 9.87868 18.1213C9.31607 17.5587 9 16.7956 9 16C9 15.2044 9.31607 14.4413 9.87868 13.8787C10.4413 13.3161 11.2044 13 12 13C12.7956 13 13.5587 13.3161 14.1213 13.8787C14.6839 14.4413 15 15.2044 15 16Z" fill="#E6AF2E"/>
<path d="M9.00102 15.917L9.00002 16C9.00144 16.792 9.31602 17.5514 9.87515 18.1124C10.4343 18.6734 11.1926 18.9905 11.9846 18.9946C12.7767 18.9987 13.5382 18.6893 14.103 18.1341C14.6679 17.5789 14.9903 16.8228 14.9998 16.0308C15.0093 15.2388 14.7053 14.4751 14.154 13.9065C13.6027 13.3378 12.8488 13.0102 12.0569 12.9952C11.265 12.9801 10.4993 13.2789 9.92679 13.8263C9.35431 14.3736 9.02152 15.1252 9.00102 15.917ZM7.67602 17.25L6.59602 18.315C6.27102 18.635 6.10902 18.795 6.05302 18.929C5.98942 19.0729 5.98075 19.235 6.02866 19.3849C6.07658 19.5347 6.17774 19.6617 6.31302 19.742C6.43502 19.813 6.65502 19.835 7.09602 19.88C7.34402 19.905 7.46902 19.917 7.57302 19.955C7.68716 19.9962 7.79099 20.0617 7.87732 20.147C7.96365 20.2323 8.03042 20.3354 8.07302 20.449C8.11202 20.552 8.12502 20.674 8.15002 20.919C8.19502 21.354 8.21802 21.571 8.29002 21.692C8.37407 21.8261 8.50341 21.9257 8.65458 21.9727C8.80575 22.0196 8.96875 22.0109 9.11402 21.948C9.25102 21.892 9.41402 21.733 9.73702 21.413L10.817 20.343C10.0724 20.1393 9.39254 19.7478 8.84257 19.2061C8.29259 18.6643 7.89092 17.9915 7.67602 17.25ZM13.182 20.343L14.262 21.413C14.587 21.733 14.749 21.893 14.886 21.948C15.199 22.074 15.546 21.966 15.71 21.692C15.782 21.572 15.805 21.354 15.85 20.92C15.875 20.674 15.888 20.552 15.927 20.45C15.9696 20.3362 16.0363 20.233 16.1226 20.1475C16.209 20.0621 16.3128 19.9964 16.427 19.955C16.532 19.917 16.656 19.905 16.904 19.88C17.344 19.835 17.565 19.813 17.687 19.742C17.8223 19.6617 17.9235 19.5347 17.9714 19.3849C18.0193 19.235 18.0106 19.0729 17.947 18.929C17.891 18.794 17.729 18.634 17.405 18.315L16.325 17.249C16.1099 17.9907 15.708 18.6647 15.1576 19.2065C14.6073 19.7483 13.927 20.1396 13.182 20.343Z" fill="#E6AF2E"/>
</svg>
