<svg width="24" height="24" viewBox="0 0 24 24" fill="none" xmlns="http://www.w3.org/2000/svg">
<path d="M2.6 10.59L8.38 4.8L10.07 6.5C9.83 7.35 10.22 8.28 11 8.73V14.27C10.4 14.61 10 15.26 10 16C10 16.5304 10.2107 17.0391 10.5858 17.4142C10.9609 17.7893 11.4696 18 12 18C12.5304 18 13.0391 17.7893 13.4142 17.4142C13.7893 17.0391 14 16.5304 14 16C14 15.26 13.6 14.61 13 14.27V9.41L15.07 11.5C15 11.65 15 11.82 15 12C15 12.5304 15.2107 13.0391 15.5858 13.4142C15.9609 13.7893 16.4696 14 17 14C17.5304 14 18.0391 13.7893 18.4142 13.4142C18.7893 13.0391 19 12.5304 19 12C19 11.4696 18.7893 10.9609 18.4142 10.5858C18.0391 10.2107 17.5304 10 17 10C16.82 10 16.65 10 16.5 10.07L13.93 7.5C14.0542 7.03684 14.006 6.54435 13.7945 6.11399C13.583 5.68364 13.2225 5.34466 12.78 5.16C12.35 5 11.9 4.96 11.5 5.07L9.8 3.38L10.59 2.6C11.37 1.81 12.63 1.81 13.41 2.6L21.4 10.59C22.19 11.37 22.19 12.63 21.4 13.41L13.41 21.4C12.63 22.19 11.37 22.19 10.59 21.4L2.6 13.41C1.81 12.63 1.81 11.37 2.6 10.59Z" fill="white"/>
</svg>
