<svg width="15" height="15" viewBox="0 0 15 15" fill="none" xmlns="http://www.w3.org/2000/svg">
<path d="M13.5 5.5H1.5M13.5 5.5C13.7652 5.5 14.0196 5.39464 14.2071 5.20711C14.3946 5.01957 14.5 4.76522 14.5 4.5V2.5C14.5 2.23478 14.3946 1.98043 14.2071 1.79289C14.0196 1.60536 13.7652 1.5 13.5 1.5H1.5C1.23478 1.5 0.98043 1.60536 0.792893 1.79289C0.605357 1.98043 0.5 2.23478 0.5 2.5V4.5C0.5 4.76522 0.605357 5.01957 0.792893 5.20711C0.98043 5.39464 1.23478 5.5 1.5 5.5M13.5 5.5C13.7652 5.5 14.0196 5.60536 14.2071 5.79289C14.3946 5.98043 14.5 6.23478 14.5 6.5V8.5C14.5 8.76522 14.3946 9.01957 14.2071 9.20711C14.0196 9.39464 13.7652 9.5 13.5 9.5M1.5 5.5C1.23478 5.5 0.98043 5.60536 0.792893 5.79289C0.605357 5.98043 0.5 6.23478 0.5 6.5V8.5C0.5 8.76522 0.605357 9.01957 0.792893 9.20711C0.98043 9.39464 1.23478 9.5 1.5 9.5M13.5 9.5H1.5M13.5 9.5C13.7652 9.5 14.0196 9.60536 14.2071 9.79289C14.3946 9.98043 14.5 10.2348 14.5 10.5V12.5C14.5 12.7652 14.3946 13.0196 14.2071 13.2071C14.0196 13.3946 13.7652 13.5 13.5 13.5H1.5C1.23478 13.5 0.98043 13.3946 0.792893 13.2071C0.605357 13.0196 0.5 12.7652 0.5 12.5V10.5C0.5 10.2348 0.605357 9.98043 0.792893 9.79289C0.98043 9.60536 1.23478 9.5 1.5 9.5M2 3.5H5M2 7.5H5M2 11.5H5" stroke="white"/>
</svg>
